<svg viewBox="0 0 16 16" fill="none" xmlns="http://www.w3.org/2000/svg">
<g clip-path="url(#clip0_290_4704)">
<path d="M12.3474 7.88796L8.57541 3.96796C8.47951 3.8613 8.35697 3.80796 8.20779 3.80796C8.05862 3.80796 7.93608 3.85863 7.84018 3.95996C7.74428 4.0613 7.69633 4.18396 7.69633 4.32796C7.69633 4.47196 7.74428 4.5973 7.84018 4.70396L10.7651 7.74396H0.519884C0.381364 7.74396 0.26149 7.79463 0.160263 7.89596C0.0590362 7.9973 0.00842285 8.11996 0.00842285 8.26396C0.00842285 8.40796 0.0590362 8.5333 0.160263 8.63996C0.26149 8.74663 0.381364 8.79996 0.519884 8.79996H10.7651L7.84018 11.824C7.74428 11.9306 7.69633 12.056 7.69633 12.2C7.69633 12.344 7.74694 12.4693 7.84817 12.576C7.9494 12.6826 8.06927 12.736 8.20779 12.736C8.34631 12.736 8.46885 12.6826 8.57541 12.576L12.3474 8.63996C12.454 8.5333 12.5073 8.4133 12.5073 8.27996C12.5073 8.14663 12.454 8.01596 12.3474 7.88796Z" fill="currentColor"/>
</g>
<defs>
<clipPath id="clip0_290_4704">
<rect width="16" height="16" fill="white" transform="matrix(1 0 0 -1 0 16)"/>
</clipPath>
</defs>
</svg>
