<svg viewBox="0 0 16 16" fill="none" xmlns="http://www.w3.org/2000/svg">
<path d="M5.33329 7.33337C5.70149 7.33337 5.99996 7.63185 5.99996 8.00004C5.99996 9.10461 6.89539 10 7.99996 10C9.10453 10 9.99996 9.10461 9.99996 8.00004C9.99996 7.63185 10.2984 7.33337 10.6666 7.33337C11.0348 7.33337 11.3333 7.63185 11.3333 8.00004C11.3333 9.84098 9.8409 11.3334 7.99996 11.3334C6.15902 11.3334 4.66663 9.84098 4.66663 8.00004C4.66663 7.63185 4.9651 7.33337 5.33329 7.33337Z" fill="currentColor"/>
<path fill-rule="evenodd" clip-rule="evenodd" d="M11.3333 4.66663H12.7584C13.8077 4.66663 14.6786 5.47752 14.7534 6.52414L15.1275 11.7625C15.2654 13.692 13.7371 15.3333 11.8027 15.3333H4.19722C2.26275 15.3333 0.734525 13.692 0.872351 11.7625L1.24652 6.52414C1.32128 5.47752 2.19215 4.66663 3.24143 4.66663H4.66661V3.99996C4.66661 2.15902 6.159 0.666626 7.99994 0.666626C9.84088 0.666626 11.3333 2.15902 11.3333 3.99996V4.66663ZM5.99994 4.66663H9.99994V3.99996C9.99994 2.89539 9.10451 1.99996 7.99994 1.99996C6.89537 1.99996 5.99994 2.89539 5.99994 3.99996V4.66663ZM3.24143 5.99996C2.89167 5.99996 2.60138 6.27025 2.57646 6.61912L2.20231 11.8575C2.1196 13.0152 3.03653 14 4.19722 14H11.8027C12.9634 14 13.8803 13.0152 13.7976 11.8575L13.4234 6.61912C13.3985 6.27025 13.1082 5.99996 12.7584 5.99996H3.24143Z" fill="currentColor"/>
</svg>
