<svg viewBox="0 0 10 10" fill="none" xmlns="http://www.w3.org/2000/svg">
<g clip-path="url(#clip0_301_12163)">
<path d="M8.405 -2.94996e-06H3.26167C2.3825 -2.94996e-06 1.66667 0.715414 1.66667 1.59541C1.66667 2.02125 1.8325 2.42166 2.13375 2.72333L4.58333 5.1725V6.66666C4.58333 6.79791 4.645 6.92125 4.75 7L6.41667 8.25C6.49 8.305 6.57833 8.33333 6.66667 8.33333C6.73 8.33333 6.79417 8.31875 6.85292 8.28958C6.99417 8.21916 7.08333 8.07458 7.08333 7.91666V5.1725L9.53292 2.72291C9.83417 2.42166 10 2.02083 10 1.595C10 0.715414 9.28417 -0.000419617 8.405 -0.000419617V-2.94996e-06ZM8.94375 2.13416L6.37208 4.70541C6.29375 4.78375 6.25 4.88958 6.25 5V7.08333L5.41667 6.45833V5C5.41667 4.88958 5.37292 4.78333 5.29458 4.70541L2.72292 2.13416C2.57917 1.99 2.5 1.79875 2.5 1.59541C2.5 1.17541 2.84167 0.83333 3.26167 0.83333H8.405C8.825 0.83333 9.16667 1.175 9.16667 1.59541C9.16667 1.79875 9.0875 1.99041 8.94375 2.13416ZM5.41667 8.75V9.58333C5.41667 9.74125 5.3275 9.88542 5.18625 9.95625C5.12708 9.98583 5.06333 10 5 10C4.91167 10 4.82333 9.97166 4.75 9.91666L3.08333 8.66666C2.97833 8.58833 2.91667 8.46458 2.91667 8.33333V6.83916L0.467083 4.39C0.165833 4.08833 0 3.68791 0 3.26208C0 2.79291 0.205417 2.34958 0.56375 2.04541C0.74 1.89625 1.0025 1.91791 1.15125 2.09333C1.3 2.26875 1.27875 2.53166 1.10333 2.68083C0.932083 2.82625 0.83375 3.03833 0.83375 3.2625C0.83375 3.46583 0.912917 3.6575 1.05667 3.80125L3.62833 6.3725C3.70667 6.45083 3.75042 6.55666 3.75042 6.66708V8.12541L4.58375 8.75041C4.58375 8.52041 4.77 8.33375 5.00042 8.33375C5.23083 8.33375 5.41708 8.52041 5.41708 8.75041L5.41667 8.75Z" fill="currentColor"/>
</g>
<defs>
<clipPath id="clip0_301_12163">
<rect width="10" height="10" fill="white"/>
</clipPath>
</defs>
</svg>
